<svg xmlns="http://www.w3.org/2000/svg" version="1.1" xmlns:xlink="http://www.w3.org/1999/xlink" height="50pt"
          
            width="50pt" x="0" y="0" viewBox="0 0 682.667 682.667" style="enable-background:new 0 0 512 512" xml:space="preserve"><g><defs><clipPath id="a" clipPathUnits="userSpaceOnUse"><path d="M0 512h512V0H0Z" fill="#fff" opacity="1" data-original="#000000"></path></clipPath></defs><g clip-path="url(#a)" transform="matrix(1.33333 0 0 -1.33333 0 682.667)"><path d="M0 0c16.578 0 30.008-13.436 30.008-30.022 0-16.559-13.43-30.022-30.008-30.022s-30.009 13.463-30.009 30.022C-30.009-13.436-16.578 0 0 0Z" style="stroke-width:15;stroke-linecap:round;stroke-linejoin:round;stroke-miterlimit:10;stroke-dasharray:none;stroke-opacity:1" transform="translate(426.492 474.227)" fill="none" stroke="#fff" stroke-width="15" stroke-linecap="round" stroke-linejoin="round" stroke-miterlimit="10" stroke-dasharray="none" stroke-opacity="" data-original="#000000" opacity="1"></path><path d="M0 0c0 18.538 11.146 34.594 27.055 41.814m37.615 0C80.579 34.594 91.725 18.538 91.725 0" style="stroke-width:15;stroke-linecap:round;stroke-linejoin:round;stroke-miterlimit:10;stroke-dasharray:none;stroke-opacity:1" transform="translate(380.63 379.002)" fill="none" stroke="#fff" stroke-width="15" stroke-linecap="round" stroke-linejoin="round" stroke-miterlimit="10" stroke-dasharray="none" stroke-opacity="" data-original="#000000" opacity="1"></path><path d="M0 0c39.146 0 71.105 31.974 71.105 71.14 0 39.193-31.959 71.139-71.105 71.139-39.175 0-71.105-31.946-71.105-71.139C-71.105 31.974-39.175 0 0 0Z" style="stroke-width:15;stroke-linecap:round;stroke-linejoin:round;stroke-miterlimit:10;stroke-dasharray:none;stroke-opacity:1" transform="translate(426.492 362.221)" fill="none" stroke="#fff" stroke-width="15" stroke-linecap="round" stroke-linejoin="round" stroke-miterlimit="10" stroke-dasharray="none" stroke-opacity="" data-original="#000000" opacity="1"></path><path d="M0 0c16.578 0 30.008-13.464 30.008-30.022 0-16.586-13.43-30.022-30.008-30.022-16.551 0-30.009 13.436-30.009 30.022C-30.009-13.464-16.551 0 0 0Z" style="stroke-width:15;stroke-linecap:round;stroke-linejoin:round;stroke-miterlimit:10;stroke-dasharray:none;stroke-opacity:1" transform="translate(430.894 119.505)" fill="none" stroke="#fff" stroke-width="15" stroke-linecap="round" stroke-linejoin="round" stroke-miterlimit="10" stroke-dasharray="none" stroke-opacity="" data-original="#000000" opacity="1"></path><path d="M0 0c0 18.538 11.146 34.622 27.055 41.842m37.642 0C80.606 34.622 91.725 18.538 91.725 0" style="stroke-width:15;stroke-linecap:round;stroke-linejoin:round;stroke-miterlimit:10;stroke-dasharray:none;stroke-opacity:1" transform="translate(385.032 24.253)" fill="none" stroke="#fff" stroke-width="15" stroke-linecap="round" stroke-linejoin="round" stroke-miterlimit="10" stroke-dasharray="none" stroke-opacity="" data-original="#000000" opacity="1"></path><path d="M0 0c39.175 0 71.105 31.946 71.105 71.139 0 39.166-31.93 71.14-71.105 71.14-39.147 0-71.105-31.974-71.105-71.14C-71.105 31.946-39.147 0 0 0Z" style="stroke-width:15;stroke-linecap:round;stroke-linejoin:round;stroke-miterlimit:10;stroke-dasharray:none;stroke-opacity:1" transform="translate(430.894 7.5)" fill="none" stroke="#fff" stroke-width="15" stroke-linecap="round" stroke-linejoin="round" stroke-miterlimit="10" stroke-dasharray="none" stroke-opacity="" data-original="#000000" opacity="1"></path><path d="M0 0c-.529.948-1.059 1.923-1.616 2.843-23.098 39.333-65.839 65.76-114.738 65.76-73.447 0-132.961-59.571-132.961-133.024 0-73.481 59.514-133.052 132.961-133.052 73.446 0 132.96 59.571 132.96 133.052 0 10.955-1.309 21.604-3.817 31.806" style="stroke-width:15;stroke-linecap:round;stroke-linejoin:round;stroke-miterlimit:10;stroke-dasharray:none;stroke-opacity:1" transform="translate(372.354 318.4)" fill="none" stroke="#fff" stroke-width="15" stroke-linecap="round" stroke-linejoin="round" stroke-miterlimit="10" stroke-dasharray="none" stroke-opacity="" data-original="#000000" opacity="1"></path><path d="M0 0v9.422c0 30.97-24.825 35.681-45.89 41.452-7.439 2.006-9.389 11.596-10.923 14.69m-44.3 0c-1.533-3.094-3.484-12.684-10.923-14.69-21.065-5.771-45.89-10.482-45.89-41.452V0" style="stroke-width:15;stroke-linecap:round;stroke-linejoin:round;stroke-miterlimit:10;stroke-dasharray:none;stroke-opacity:1" transform="translate(334.963 146.935)" fill="none" stroke="#fff" stroke-width="15" stroke-linecap="round" stroke-linejoin="round" stroke-miterlimit="10" stroke-dasharray="none" stroke-opacity="" data-original="#000000" opacity="1"></path><path d="M0 0v-17.283c0-20.294-19.058-45.773-42.379-54.414-10.225-3.819-18.083-3.819-28.309 0-23.321 8.641-42.378 34.12-42.378 54.414V0" style="stroke-width:15;stroke-linecap:round;stroke-linejoin:round;stroke-miterlimit:10;stroke-dasharray:none;stroke-opacity:1" transform="translate(312.533 280.517)" fill="none" stroke="#fff" stroke-width="15" stroke-linecap="round" stroke-linejoin="round" stroke-miterlimit="10" stroke-dasharray="none" stroke-opacity="" data-original="#000000" opacity="1"></path><path d="m0 0 35.135-20.6c5.963-3.875 9.361-3.875 15.324 0L85.594 0" style="stroke-width:15;stroke-linecap:round;stroke-linejoin:round;stroke-miterlimit:10;stroke-dasharray:none;stroke-opacity:1" transform="translate(213.203 195.16)" fill="none" stroke="#fff" stroke-width="15" stroke-linecap="round" stroke-linejoin="round" stroke-miterlimit="10" stroke-dasharray="none" stroke-opacity="" data-original="#000000" opacity="1"></path><path d="M0 0c7.355 3.484 15.352 5.269 23.349 5.408 28.28-.474 56.533-21.771 56.533-63.78-22.875 1.617-19.476 19.095-35.275 15.025-12.203-3.15-16.716-4.739-21.258-4.739-4.542 0-9.056 1.589-21.259 4.739-15.799 4.07-12.4-13.408-35.275-15.025 0 15.192 3.678 27.681 9.752 37.437" style="stroke-width:15;stroke-linecap:round;stroke-linejoin:round;stroke-miterlimit:10;stroke-dasharray:none;stroke-opacity:1" transform="translate(232.651 338.89)" fill="none" stroke="#fff" stroke-width="15" stroke-linecap="round" stroke-linejoin="round" stroke-miterlimit="10" stroke-dasharray="none" stroke-opacity="" data-original="#000000" opacity="1"></path><path d="m0 0 30.621-30.636" style="stroke-width:15;stroke-linecap:round;stroke-linejoin:round;stroke-miterlimit:10;stroke-dasharray:none;stroke-opacity:1" transform="translate(131.37 378.668)" fill="none" stroke="#fff" stroke-width="15" stroke-linecap="round" stroke-linejoin="round" stroke-miterlimit="10" stroke-dasharray="none" stroke-opacity="" data-original="#000000" opacity="1"></path><path d="m0 0 30.621 30.942" style="stroke-width:15;stroke-linecap:round;stroke-linejoin:round;stroke-miterlimit:10;stroke-dasharray:none;stroke-opacity:1" transform="translate(350.009 348.06)" fill="none" stroke="#fff" stroke-width="15" stroke-linecap="round" stroke-linejoin="round" stroke-miterlimit="10" stroke-dasharray="none" stroke-opacity="" data-original="#000000" opacity="1"></path><path d="m0 0 30.621 30.608" style="stroke-width:15;stroke-linecap:round;stroke-linejoin:round;stroke-miterlimit:10;stroke-dasharray:none;stroke-opacity:1" transform="translate(131.37 129.29)" fill="none" stroke="#fff" stroke-width="15" stroke-linecap="round" stroke-linejoin="round" stroke-miterlimit="10" stroke-dasharray="none" stroke-opacity="" data-original="#000000" opacity="1"></path><path d="m0 0 30.621-30.942" style="stroke-width:15;stroke-linecap:round;stroke-linejoin:round;stroke-miterlimit:10;stroke-dasharray:none;stroke-opacity:1" transform="translate(350.009 159.87)" fill="none" stroke="#fff" stroke-width="15" stroke-linecap="round" stroke-linejoin="round" stroke-miterlimit="10" stroke-dasharray="none" stroke-opacity="" data-original="#000000" opacity="1"></path><path d="M0 0h34.466" style="stroke-width:15;stroke-linecap:round;stroke-linejoin:round;stroke-miterlimit:10;stroke-dasharray:none;stroke-opacity:1" transform="translate(88.573 253.979)" fill="none" stroke="#fff" stroke-width="15" stroke-linecap="round" stroke-linejoin="round" stroke-miterlimit="10" stroke-dasharray="none" stroke-opacity="" data-original="#000000" opacity="1"></path><path d="M0 0h-34.466" style="stroke-width:15;stroke-linecap:round;stroke-linejoin:round;stroke-miterlimit:10;stroke-dasharray:none;stroke-opacity:1" transform="translate(423.427 253.979)" fill="none" stroke="#fff" stroke-width="15" stroke-linecap="round" stroke-linejoin="round" stroke-miterlimit="10" stroke-dasharray="none" stroke-opacity="" data-original="#000000" opacity="1"></path><path d="M0 0v34.482" style="stroke-width:15;stroke-linecap:round;stroke-linejoin:round;stroke-miterlimit:10;stroke-dasharray:none;stroke-opacity:1" transform="translate(256 86.445)" fill="none" stroke="#fff" stroke-width="15" stroke-linecap="round" stroke-linejoin="round" stroke-miterlimit="10" stroke-dasharray="none" stroke-opacity="" data-original="#000000" opacity="1"></path><path d="M0 0v-34.482" style="stroke-width:15;stroke-linecap:round;stroke-linejoin:round;stroke-miterlimit:10;stroke-dasharray:none;stroke-opacity:1" transform="translate(256 421.485)" fill="none" stroke="#fff" stroke-width="15" stroke-linecap="round" stroke-linejoin="round" stroke-miterlimit="10" stroke-dasharray="none" stroke-opacity="" data-original="#000000" opacity="1"></path><path d="M0 0c0 21.213-17.22 38.413-38.423 38.413-21.204 0-38.423-17.2-38.423-38.413 0-21.241 17.219-38.441 38.423-38.441C-17.22-38.441 0-21.241 0 0Z" style="stroke-width:15;stroke-linecap:round;stroke-linejoin:round;stroke-miterlimit:10;stroke-dasharray:none;stroke-opacity:1" transform="translate(88.573 253.979)" fill="none" stroke="#fff" stroke-width="15" stroke-linecap="round" stroke-linejoin="round" stroke-miterlimit="10" stroke-dasharray="none" stroke-opacity="" data-original="#000000" opacity="1"></path><path d="M0 0c0 21.213 17.22 38.413 38.423 38.413 21.204 0 38.423-17.2 38.423-38.413 0-21.241-17.219-38.441-38.423-38.441C17.22-38.441 0-21.241 0 0Z" style="stroke-width:15;stroke-linecap:round;stroke-linejoin:round;stroke-miterlimit:10;stroke-dasharray:none;stroke-opacity:1" transform="translate(423.427 253.979)" fill="none" stroke="#fff" stroke-width="15" stroke-linecap="round" stroke-linejoin="round" stroke-miterlimit="10" stroke-dasharray="none" stroke-opacity="" data-original="#000000" opacity="1"></path><path d="M0 0c21.203 0 38.423-17.2 38.423-38.413 0-21.242-17.22-38.441-38.423-38.441-21.203 0-38.423 17.199-38.423 38.441C-38.423-17.2-21.203 0 0 0Z" style="stroke-width:15;stroke-linecap:round;stroke-linejoin:round;stroke-miterlimit:10;stroke-dasharray:none;stroke-opacity:1" transform="translate(256 86.445)" fill="none" stroke="#fff" stroke-width="15" stroke-linecap="round" stroke-linejoin="round" stroke-miterlimit="10" stroke-dasharray="none" stroke-opacity="" data-original="#000000" opacity="1"></path><path d="M0 0c21.203 0 38.423 17.2 38.423 38.441 0 21.214-17.22 38.413-38.423 38.413-21.203 0-38.423-17.199-38.423-38.413C-38.423 17.2-21.203 0 0 0Z" style="stroke-width:15;stroke-linecap:round;stroke-linejoin:round;stroke-miterlimit:10;stroke-dasharray:none;stroke-opacity:1" transform="translate(256 421.485)" fill="none" stroke="#fff" stroke-width="15" stroke-linecap="round" stroke-linejoin="round" stroke-miterlimit="10" stroke-dasharray="none" stroke-opacity="" data-original="#000000" opacity="1"></path><path d="M0 0c16.551 0 30.009-13.436 30.009-30.022S16.551-60.044 0-60.044c-16.578 0-30.008 13.436-30.008 30.022S-16.578 0 0 0Z" style="stroke-width:15;stroke-linecap:round;stroke-linejoin:round;stroke-miterlimit:10;stroke-dasharray:none;stroke-opacity:1" transform="translate(81.106 119.84)" fill="none" stroke="#fff" stroke-width="15" stroke-linecap="round" stroke-linejoin="round" stroke-miterlimit="10" stroke-dasharray="none" stroke-opacity="" data-original="#000000" opacity="1"></path><path d="M0 0c0 18.538 11.118 34.594 27.027 41.814m37.643 0C80.579 34.594 91.725 18.538 91.725 0" style="stroke-width:15;stroke-linecap:round;stroke-linejoin:round;stroke-miterlimit:10;stroke-dasharray:none;stroke-opacity:1" transform="translate(35.243 24.616)" fill="none" stroke="#fff" stroke-width="15" stroke-linecap="round" stroke-linejoin="round" stroke-miterlimit="10" stroke-dasharray="none" stroke-opacity="" data-original="#000000" opacity="1"></path><path d="M0 0c39.147 0 71.105 31.974 71.105 71.14 0 39.193-31.958 71.139-71.105 71.139-39.175 0-71.105-31.946-71.105-71.139C-71.105 31.974-39.175 0 0 0Z" style="stroke-width:15;stroke-linecap:round;stroke-linejoin:round;stroke-miterlimit:10;stroke-dasharray:none;stroke-opacity:1" transform="translate(81.106 7.835)" fill="none" stroke="#fff" stroke-width="15" stroke-linecap="round" stroke-linejoin="round" stroke-miterlimit="10" stroke-dasharray="none" stroke-opacity="" data-original="#000000" opacity="1"></path><path d="M0 0c16.578 0 30.009-13.436 30.009-30.022 0-16.559-13.431-30.022-30.009-30.022-16.578 0-30.008 13.463-30.008 30.022C-30.008-13.436-16.578 0 0 0Z" style="stroke-width:15;stroke-linecap:round;stroke-linejoin:round;stroke-miterlimit:10;stroke-dasharray:none;stroke-opacity:1" transform="translate(85.508 474.227)" fill="none" stroke="#fff" stroke-width="15" stroke-linecap="round" stroke-linejoin="round" stroke-miterlimit="10" stroke-dasharray="none" stroke-opacity="" data-original="#000000" opacity="1"></path><path d="M0 0c0 18.538 11.146 34.594 27.055 41.814m37.615 0C80.579 34.594 91.725 18.538 91.725 0" style="stroke-width:15;stroke-linecap:round;stroke-linejoin:round;stroke-miterlimit:10;stroke-dasharray:none;stroke-opacity:1" transform="translate(39.645 379.002)" fill="none" stroke="#fff" stroke-width="15" stroke-linecap="round" stroke-linejoin="round" stroke-miterlimit="10" stroke-dasharray="none" stroke-opacity="" data-original="#000000" opacity="1"></path><path d="M0 0c39.175 0 71.105 31.974 71.105 71.14 0 39.193-31.93 71.139-71.105 71.139-39.146 0-71.105-31.946-71.105-71.139C-71.105 31.974-39.146 0 0 0Z" style="stroke-width:15;stroke-linecap:round;stroke-linejoin:round;stroke-miterlimit:10;stroke-dasharray:none;stroke-opacity:1" transform="translate(85.508 362.221)" fill="none" stroke="#fff" stroke-width="15" stroke-linecap="round" stroke-linejoin="round" stroke-miterlimit="10" stroke-dasharray="none" stroke-opacity="" data-original="#000000" opacity="1"></path></g></g></svg>